<mxfile host="Electron" modified="2023-12-22T23:04:31.349Z" agent="Mozilla/5.0 (Windows NT 10.0; Win64; x64) AppleWebKit/537.36 (KHTML, like Gecko) draw.io/22.1.11 Chrome/114.0.5735.289 Electron/25.9.8 Safari/537.36" etag="yCoDlZ3wbcf6gCZpwNh_" version="22.1.11" type="device">
  <diagram name="PÃ¡gina-1" id="15DuGuY_9cWO1h8q6QZw">
    <mxGraphModel dx="3689" dy="1564" grid="0" gridSize="10" guides="1" tooltips="1" connect="1" arrows="1" fold="1" page="0" pageScale="2" pageWidth="850" pageHeight="1100" math="0" shadow="0">
      <root>
        <mxCell id="0" />
        <mxCell id="1" parent="0" />
        <mxCell id="Ok9xSp1kx2kLwXgk5E_P-82" value="LOCACAO" style="shape=table;startSize=30;container=1;collapsible=1;childLayout=tableLayout;fixedRows=1;rowLines=0;fontStyle=1;align=center;resizeLast=1;html=1;" vertex="1" parent="1">
          <mxGeometry x="22" y="-47" width="340" height="351.6875" as="geometry" />
        </mxCell>
        <mxCell id="Ok9xSp1kx2kLwXgk5E_P-83" value="" style="shape=tableRow;horizontal=0;startSize=0;swimlaneHead=0;swimlaneBody=0;fillColor=none;collapsible=0;dropTarget=0;points=[[0,0.5],[1,0.5]];portConstraint=eastwest;top=0;left=0;right=0;bottom=1;" vertex="1" parent="Ok9xSp1kx2kLwXgk5E_P-82">
          <mxGeometry y="30" width="340" height="30" as="geometry" />
        </mxCell>
        <mxCell id="Ok9xSp1kx2kLwXgk5E_P-84" value="PK" style="shape=partialRectangle;connectable=0;fillColor=none;top=0;left=0;bottom=0;right=0;fontStyle=1;overflow=hidden;whiteSpace=wrap;html=1;" vertex="1" parent="Ok9xSp1kx2kLwXgk5E_P-83">
          <mxGeometry width="30" height="30" as="geometry">
            <mxRectangle width="30" height="30" as="alternateBounds" />
          </mxGeometry>
        </mxCell>
        <mxCell id="Ok9xSp1kx2kLwXgk5E_P-85" value="ID: INT NOT NULL AUTO-INCREMENT" style="shape=partialRectangle;connectable=0;fillColor=none;top=0;left=0;bottom=0;right=0;align=left;spacingLeft=6;fontStyle=5;overflow=hidden;whiteSpace=wrap;html=1;" vertex="1" parent="Ok9xSp1kx2kLwXgk5E_P-83">
          <mxGeometry x="30" width="310" height="30" as="geometry">
            <mxRectangle width="310" height="30" as="alternateBounds" />
          </mxGeometry>
        </mxCell>
        <mxCell id="Ok9xSp1kx2kLwXgk5E_P-86" value="" style="shape=tableRow;horizontal=0;startSize=0;swimlaneHead=0;swimlaneBody=0;fillColor=none;collapsible=0;dropTarget=0;points=[[0,0.5],[1,0.5]];portConstraint=eastwest;top=0;left=0;right=0;bottom=0;" vertex="1" parent="Ok9xSp1kx2kLwXgk5E_P-82">
          <mxGeometry y="60" width="340" height="30" as="geometry" />
        </mxCell>
        <mxCell id="Ok9xSp1kx2kLwXgk5E_P-87" value="" style="shape=partialRectangle;connectable=0;fillColor=none;top=0;left=0;bottom=0;right=0;editable=1;overflow=hidden;whiteSpace=wrap;html=1;" vertex="1" parent="Ok9xSp1kx2kLwXgk5E_P-86">
          <mxGeometry width="30" height="30" as="geometry">
            <mxRectangle width="30" height="30" as="alternateBounds" />
          </mxGeometry>
        </mxCell>
        <mxCell id="Ok9xSp1kx2kLwXgk5E_P-88" value="DATA_LOCACAO: DATE NOT NULL" style="shape=partialRectangle;connectable=0;fillColor=none;top=0;left=0;bottom=0;right=0;align=left;spacingLeft=6;overflow=hidden;whiteSpace=wrap;html=1;" vertex="1" parent="Ok9xSp1kx2kLwXgk5E_P-86">
          <mxGeometry x="30" width="310" height="30" as="geometry">
            <mxRectangle width="310" height="30" as="alternateBounds" />
          </mxGeometry>
        </mxCell>
        <mxCell id="Ok9xSp1kx2kLwXgk5E_P-89" value="" style="shape=tableRow;horizontal=0;startSize=0;swimlaneHead=0;swimlaneBody=0;fillColor=none;collapsible=0;dropTarget=0;points=[[0,0.5],[1,0.5]];portConstraint=eastwest;top=0;left=0;right=0;bottom=0;" vertex="1" parent="Ok9xSp1kx2kLwXgk5E_P-82">
          <mxGeometry y="90" width="340" height="30" as="geometry" />
        </mxCell>
        <mxCell id="Ok9xSp1kx2kLwXgk5E_P-90" value="" style="shape=partialRectangle;connectable=0;fillColor=none;top=0;left=0;bottom=0;right=0;editable=1;overflow=hidden;whiteSpace=wrap;html=1;" vertex="1" parent="Ok9xSp1kx2kLwXgk5E_P-89">
          <mxGeometry width="30" height="30" as="geometry">
            <mxRectangle width="30" height="30" as="alternateBounds" />
          </mxGeometry>
        </mxCell>
        <mxCell id="Ok9xSp1kx2kLwXgk5E_P-91" value="DATA_DEVOLUCAO: DATE" style="shape=partialRectangle;connectable=0;fillColor=none;top=0;left=0;bottom=0;right=0;align=left;spacingLeft=6;overflow=hidden;whiteSpace=wrap;html=1;" vertex="1" parent="Ok9xSp1kx2kLwXgk5E_P-89">
          <mxGeometry x="30" width="310" height="30" as="geometry">
            <mxRectangle width="310" height="30" as="alternateBounds" />
          </mxGeometry>
        </mxCell>
        <mxCell id="Ok9xSp1kx2kLwXgk5E_P-92" value="" style="shape=tableRow;horizontal=0;startSize=0;swimlaneHead=0;swimlaneBody=0;fillColor=none;collapsible=0;dropTarget=0;points=[[0,0.5],[1,0.5]];portConstraint=eastwest;top=0;left=0;right=0;bottom=0;" vertex="1" parent="Ok9xSp1kx2kLwXgk5E_P-82">
          <mxGeometry y="120" width="340" height="30" as="geometry" />
        </mxCell>
        <mxCell id="Ok9xSp1kx2kLwXgk5E_P-93" value="" style="shape=partialRectangle;connectable=0;fillColor=none;top=0;left=0;bottom=0;right=0;editable=1;overflow=hidden;whiteSpace=wrap;html=1;" vertex="1" parent="Ok9xSp1kx2kLwXgk5E_P-92">
          <mxGeometry width="30" height="30" as="geometry">
            <mxRectangle width="30" height="30" as="alternateBounds" />
          </mxGeometry>
        </mxCell>
        <mxCell id="Ok9xSp1kx2kLwXgk5E_P-94" value="QUILOMETRAGEM_INICIAL: INT NOT NULL" style="shape=partialRectangle;connectable=0;fillColor=none;top=0;left=0;bottom=0;right=0;align=left;spacingLeft=6;overflow=hidden;whiteSpace=wrap;html=1;" vertex="1" parent="Ok9xSp1kx2kLwXgk5E_P-92">
          <mxGeometry x="30" width="310" height="30" as="geometry">
            <mxRectangle width="310" height="30" as="alternateBounds" />
          </mxGeometry>
        </mxCell>
        <mxCell id="Ok9xSp1kx2kLwXgk5E_P-95" value="" style="shape=tableRow;horizontal=0;startSize=0;swimlaneHead=0;swimlaneBody=0;fillColor=none;collapsible=0;dropTarget=0;points=[[0,0.5],[1,0.5]];portConstraint=eastwest;top=0;left=0;right=0;bottom=0;" vertex="1" parent="Ok9xSp1kx2kLwXgk5E_P-82">
          <mxGeometry y="150" width="340" height="33" as="geometry" />
        </mxCell>
        <mxCell id="Ok9xSp1kx2kLwXgk5E_P-96" value="" style="shape=partialRectangle;connectable=0;fillColor=none;top=0;left=0;bottom=0;right=0;editable=1;overflow=hidden;whiteSpace=wrap;html=1;" vertex="1" parent="Ok9xSp1kx2kLwXgk5E_P-95">
          <mxGeometry width="30" height="33" as="geometry">
            <mxRectangle width="30" height="33" as="alternateBounds" />
          </mxGeometry>
        </mxCell>
        <mxCell id="Ok9xSp1kx2kLwXgk5E_P-97" value="QUILOMETRAGEM_FINAL: INT" style="shape=partialRectangle;connectable=0;fillColor=none;top=0;left=0;bottom=0;right=0;align=left;spacingLeft=6;overflow=hidden;whiteSpace=wrap;html=1;" vertex="1" parent="Ok9xSp1kx2kLwXgk5E_P-95">
          <mxGeometry x="30" width="310" height="33" as="geometry">
            <mxRectangle width="310" height="33" as="alternateBounds" />
          </mxGeometry>
        </mxCell>
        <mxCell id="Ok9xSp1kx2kLwXgk5E_P-98" value="" style="shape=tableRow;horizontal=0;startSize=0;swimlaneHead=0;swimlaneBody=0;fillColor=none;collapsible=0;dropTarget=0;points=[[0,0.5],[1,0.5]];portConstraint=eastwest;top=0;left=0;right=0;bottom=0;" vertex="1" parent="Ok9xSp1kx2kLwXgk5E_P-82">
          <mxGeometry y="183" width="340" height="30" as="geometry" />
        </mxCell>
        <mxCell id="Ok9xSp1kx2kLwXgk5E_P-99" value="" style="shape=partialRectangle;connectable=0;fillColor=none;top=0;left=0;bottom=0;right=0;editable=1;overflow=hidden;whiteSpace=wrap;html=1;" vertex="1" parent="Ok9xSp1kx2kLwXgk5E_P-98">
          <mxGeometry width="30" height="30" as="geometry">
            <mxRectangle width="30" height="30" as="alternateBounds" />
          </mxGeometry>
        </mxCell>
        <mxCell id="Ok9xSp1kx2kLwXgk5E_P-100" value="&amp;nbsp;MODALIDADE_LOCACAO: ENUM (&#39;DIARIA&#39;)" style="shape=partialRectangle;connectable=0;fillColor=none;top=0;left=0;bottom=0;right=0;align=left;spacingLeft=6;overflow=hidden;whiteSpace=wrap;html=1;" vertex="1" parent="Ok9xSp1kx2kLwXgk5E_P-98">
          <mxGeometry x="30" width="310" height="30" as="geometry">
            <mxRectangle width="310" height="30" as="alternateBounds" />
          </mxGeometry>
        </mxCell>
        <mxCell id="Ok9xSp1kx2kLwXgk5E_P-101" value="" style="shape=tableRow;horizontal=0;startSize=0;swimlaneHead=0;swimlaneBody=0;fillColor=none;collapsible=0;dropTarget=0;points=[[0,0.5],[1,0.5]];portConstraint=eastwest;top=0;left=0;right=0;bottom=0;" vertex="1" parent="Ok9xSp1kx2kLwXgk5E_P-82">
          <mxGeometry y="213" width="340" height="30" as="geometry" />
        </mxCell>
        <mxCell id="Ok9xSp1kx2kLwXgk5E_P-102" value="FK" style="shape=partialRectangle;connectable=0;fillColor=none;top=0;left=0;bottom=0;right=0;editable=1;overflow=hidden;whiteSpace=wrap;html=1;" vertex="1" parent="Ok9xSp1kx2kLwXgk5E_P-101">
          <mxGeometry width="30" height="30" as="geometry">
            <mxRectangle width="30" height="30" as="alternateBounds" />
          </mxGeometry>
        </mxCell>
        <mxCell id="Ok9xSp1kx2kLwXgk5E_P-103" value="FK_ID_CARRO: INT NOT NULL" style="shape=partialRectangle;connectable=0;fillColor=none;top=0;left=0;bottom=0;right=0;align=left;spacingLeft=6;overflow=hidden;whiteSpace=wrap;html=1;" vertex="1" parent="Ok9xSp1kx2kLwXgk5E_P-101">
          <mxGeometry x="30" width="310" height="30" as="geometry">
            <mxRectangle width="310" height="30" as="alternateBounds" />
          </mxGeometry>
        </mxCell>
        <mxCell id="Ok9xSp1kx2kLwXgk5E_P-104" value="" style="shape=tableRow;horizontal=0;startSize=0;swimlaneHead=0;swimlaneBody=0;fillColor=none;collapsible=0;dropTarget=0;points=[[0,0.5],[1,0.5]];portConstraint=eastwest;top=0;left=0;right=0;bottom=0;" vertex="1" parent="Ok9xSp1kx2kLwXgk5E_P-82">
          <mxGeometry y="243" width="340" height="30" as="geometry" />
        </mxCell>
        <mxCell id="Ok9xSp1kx2kLwXgk5E_P-105" value="FK" style="shape=partialRectangle;connectable=0;fillColor=none;top=0;left=0;bottom=0;right=0;editable=1;overflow=hidden;whiteSpace=wrap;html=1;" vertex="1" parent="Ok9xSp1kx2kLwXgk5E_P-104">
          <mxGeometry width="30" height="30" as="geometry">
            <mxRectangle width="30" height="30" as="alternateBounds" />
          </mxGeometry>
        </mxCell>
        <mxCell id="Ok9xSp1kx2kLwXgk5E_P-106" value="FK_ID_UNIDADE_LOCACAO:&amp;nbsp; INT NOT NULL&lt;span style=&quot;white-space: pre;&quot;&gt;&#x9;&lt;/span&gt;" style="shape=partialRectangle;connectable=0;fillColor=none;top=0;left=0;bottom=0;right=0;align=left;spacingLeft=6;overflow=hidden;whiteSpace=wrap;html=1;" vertex="1" parent="Ok9xSp1kx2kLwXgk5E_P-104">
          <mxGeometry x="30" width="310" height="30" as="geometry">
            <mxRectangle width="310" height="30" as="alternateBounds" />
          </mxGeometry>
        </mxCell>
        <mxCell id="Ok9xSp1kx2kLwXgk5E_P-107" value="" style="shape=tableRow;horizontal=0;startSize=0;swimlaneHead=0;swimlaneBody=0;fillColor=none;collapsible=0;dropTarget=0;points=[[0,0.5],[1,0.5]];portConstraint=eastwest;top=0;left=0;right=0;bottom=0;" vertex="1" parent="Ok9xSp1kx2kLwXgk5E_P-82">
          <mxGeometry y="273" width="340" height="30" as="geometry" />
        </mxCell>
        <mxCell id="Ok9xSp1kx2kLwXgk5E_P-108" value="FK" style="shape=partialRectangle;connectable=0;fillColor=none;top=0;left=0;bottom=0;right=0;editable=1;overflow=hidden;whiteSpace=wrap;html=1;" vertex="1" parent="Ok9xSp1kx2kLwXgk5E_P-107">
          <mxGeometry width="30" height="30" as="geometry">
            <mxRectangle width="30" height="30" as="alternateBounds" />
          </mxGeometry>
        </mxCell>
        <mxCell id="Ok9xSp1kx2kLwXgk5E_P-109" value="FK_ID_UNIDADE_DEVOLUCAO: INT" style="shape=partialRectangle;connectable=0;fillColor=none;top=0;left=0;bottom=0;right=0;align=left;spacingLeft=6;overflow=hidden;whiteSpace=wrap;html=1;" vertex="1" parent="Ok9xSp1kx2kLwXgk5E_P-107">
          <mxGeometry x="30" width="310" height="30" as="geometry">
            <mxRectangle width="310" height="30" as="alternateBounds" />
          </mxGeometry>
        </mxCell>
        <mxCell id="Ok9xSp1kx2kLwXgk5E_P-110" value="" style="shape=tableRow;horizontal=0;startSize=0;swimlaneHead=0;swimlaneBody=0;fillColor=none;collapsible=0;dropTarget=0;points=[[0,0.5],[1,0.5]];portConstraint=eastwest;top=0;left=0;right=0;bottom=0;" vertex="1" parent="Ok9xSp1kx2kLwXgk5E_P-82">
          <mxGeometry y="303" width="340" height="30" as="geometry" />
        </mxCell>
        <mxCell id="Ok9xSp1kx2kLwXgk5E_P-111" value="FK" style="shape=partialRectangle;connectable=0;fillColor=none;top=0;left=0;bottom=0;right=0;editable=1;overflow=hidden;whiteSpace=wrap;html=1;" vertex="1" parent="Ok9xSp1kx2kLwXgk5E_P-110">
          <mxGeometry width="30" height="30" as="geometry">
            <mxRectangle width="30" height="30" as="alternateBounds" />
          </mxGeometry>
        </mxCell>
        <mxCell id="Ok9xSp1kx2kLwXgk5E_P-112" value="FK_ID_CLIENTE: INT NOT NULL" style="shape=partialRectangle;connectable=0;fillColor=none;top=0;left=0;bottom=0;right=0;align=left;spacingLeft=6;overflow=hidden;whiteSpace=wrap;html=1;" vertex="1" parent="Ok9xSp1kx2kLwXgk5E_P-110">
          <mxGeometry x="30" width="310" height="30" as="geometry">
            <mxRectangle width="310" height="30" as="alternateBounds" />
          </mxGeometry>
        </mxCell>
        <mxCell id="Ok9xSp1kx2kLwXgk5E_P-113" value="CLIENTE" style="shape=table;startSize=30;container=1;collapsible=1;childLayout=tableLayout;fixedRows=1;rowLines=0;fontStyle=1;align=center;resizeLast=1;html=1;" vertex="1" parent="1">
          <mxGeometry x="-337" y="-4" width="263" height="131" as="geometry" />
        </mxCell>
        <mxCell id="Ok9xSp1kx2kLwXgk5E_P-114" value="" style="shape=tableRow;horizontal=0;startSize=0;swimlaneHead=0;swimlaneBody=0;fillColor=none;collapsible=0;dropTarget=0;points=[[0,0.5],[1,0.5]];portConstraint=eastwest;top=0;left=0;right=0;bottom=1;" vertex="1" parent="Ok9xSp1kx2kLwXgk5E_P-113">
          <mxGeometry y="30" width="263" height="30" as="geometry" />
        </mxCell>
        <mxCell id="Ok9xSp1kx2kLwXgk5E_P-115" value="PK" style="shape=partialRectangle;connectable=0;fillColor=none;top=0;left=0;bottom=0;right=0;fontStyle=1;overflow=hidden;whiteSpace=wrap;html=1;" vertex="1" parent="Ok9xSp1kx2kLwXgk5E_P-114">
          <mxGeometry width="30" height="30" as="geometry">
            <mxRectangle width="30" height="30" as="alternateBounds" />
          </mxGeometry>
        </mxCell>
        <mxCell id="Ok9xSp1kx2kLwXgk5E_P-116" value="ID: INT NOT NULL AUTO-INCREMENT" style="shape=partialRectangle;connectable=0;fillColor=none;top=0;left=0;bottom=0;right=0;align=left;spacingLeft=6;fontStyle=5;overflow=hidden;whiteSpace=wrap;html=1;" vertex="1" parent="Ok9xSp1kx2kLwXgk5E_P-114">
          <mxGeometry x="30" width="233" height="30" as="geometry">
            <mxRectangle width="233" height="30" as="alternateBounds" />
          </mxGeometry>
        </mxCell>
        <mxCell id="Ok9xSp1kx2kLwXgk5E_P-117" value="" style="shape=tableRow;horizontal=0;startSize=0;swimlaneHead=0;swimlaneBody=0;fillColor=none;collapsible=0;dropTarget=0;points=[[0,0.5],[1,0.5]];portConstraint=eastwest;top=0;left=0;right=0;bottom=0;" vertex="1" parent="Ok9xSp1kx2kLwXgk5E_P-113">
          <mxGeometry y="60" width="263" height="30" as="geometry" />
        </mxCell>
        <mxCell id="Ok9xSp1kx2kLwXgk5E_P-118" value="" style="shape=partialRectangle;connectable=0;fillColor=none;top=0;left=0;bottom=0;right=0;editable=1;overflow=hidden;whiteSpace=wrap;html=1;" vertex="1" parent="Ok9xSp1kx2kLwXgk5E_P-117">
          <mxGeometry width="30" height="30" as="geometry">
            <mxRectangle width="30" height="30" as="alternateBounds" />
          </mxGeometry>
        </mxCell>
        <mxCell id="Ok9xSp1kx2kLwXgk5E_P-119" value="NOME: VRCHAR(255) NOT NULL" style="shape=partialRectangle;connectable=0;fillColor=none;top=0;left=0;bottom=0;right=0;align=left;spacingLeft=6;overflow=hidden;whiteSpace=wrap;html=1;" vertex="1" parent="Ok9xSp1kx2kLwXgk5E_P-117">
          <mxGeometry x="30" width="233" height="30" as="geometry">
            <mxRectangle width="233" height="30" as="alternateBounds" />
          </mxGeometry>
        </mxCell>
        <mxCell id="Ok9xSp1kx2kLwXgk5E_P-120" value="" style="shape=tableRow;horizontal=0;startSize=0;swimlaneHead=0;swimlaneBody=0;fillColor=none;collapsible=0;dropTarget=0;points=[[0,0.5],[1,0.5]];portConstraint=eastwest;top=0;left=0;right=0;bottom=0;" vertex="1" parent="Ok9xSp1kx2kLwXgk5E_P-113">
          <mxGeometry y="90" width="263" height="30" as="geometry" />
        </mxCell>
        <mxCell id="Ok9xSp1kx2kLwXgk5E_P-121" value="FK" style="shape=partialRectangle;connectable=0;fillColor=none;top=0;left=0;bottom=0;right=0;editable=1;overflow=hidden;whiteSpace=wrap;html=1;" vertex="1" parent="Ok9xSp1kx2kLwXgk5E_P-120">
          <mxGeometry width="30" height="30" as="geometry">
            <mxRectangle width="30" height="30" as="alternateBounds" />
          </mxGeometry>
        </mxCell>
        <mxCell id="Ok9xSp1kx2kLwXgk5E_P-122" value="FK_ID_LOCACAO_ATUAL" style="shape=partialRectangle;connectable=0;fillColor=none;top=0;left=0;bottom=0;right=0;align=left;spacingLeft=6;overflow=hidden;whiteSpace=wrap;html=1;" vertex="1" parent="Ok9xSp1kx2kLwXgk5E_P-120">
          <mxGeometry x="30" width="233" height="30" as="geometry">
            <mxRectangle width="233" height="30" as="alternateBounds" />
          </mxGeometry>
        </mxCell>
        <mxCell id="Ok9xSp1kx2kLwXgk5E_P-127" value="" style="edgeStyle=entityRelationEdgeStyle;fontSize=12;html=1;endArrow=ERmandOne;startArrow=ERmandOne;rounded=0;exitX=1;exitY=0.5;exitDx=0;exitDy=0;entryX=0;entryY=0.5;entryDx=0;entryDy=0;" edge="1" parent="1" source="Ok9xSp1kx2kLwXgk5E_P-120" target="Ok9xSp1kx2kLwXgk5E_P-83">
          <mxGeometry width="100" height="100" relative="1" as="geometry">
            <mxPoint x="-254" y="139" as="sourcePoint" />
            <mxPoint x="-154" y="39" as="targetPoint" />
            <Array as="points">
              <mxPoint x="-573" y="-144" />
            </Array>
          </mxGeometry>
        </mxCell>
        <mxCell id="Ok9xSp1kx2kLwXgk5E_P-128" value="UNIDADE" style="shape=table;startSize=30;container=1;collapsible=1;childLayout=tableLayout;fixedRows=1;rowLines=0;fontStyle=1;align=center;resizeLast=1;html=1;" vertex="1" parent="1">
          <mxGeometry x="-340.5" y="329" width="266.5" height="120" as="geometry" />
        </mxCell>
        <mxCell id="Ok9xSp1kx2kLwXgk5E_P-129" value="" style="shape=tableRow;horizontal=0;startSize=0;swimlaneHead=0;swimlaneBody=0;fillColor=none;collapsible=0;dropTarget=0;points=[[0,0.5],[1,0.5]];portConstraint=eastwest;top=0;left=0;right=0;bottom=1;" vertex="1" parent="Ok9xSp1kx2kLwXgk5E_P-128">
          <mxGeometry y="30" width="266.5" height="30" as="geometry" />
        </mxCell>
        <mxCell id="Ok9xSp1kx2kLwXgk5E_P-130" value="PK" style="shape=partialRectangle;connectable=0;fillColor=none;top=0;left=0;bottom=0;right=0;fontStyle=1;overflow=hidden;whiteSpace=wrap;html=1;" vertex="1" parent="Ok9xSp1kx2kLwXgk5E_P-129">
          <mxGeometry width="30" height="30" as="geometry">
            <mxRectangle width="30" height="30" as="alternateBounds" />
          </mxGeometry>
        </mxCell>
        <mxCell id="Ok9xSp1kx2kLwXgk5E_P-131" value="ID: INT&amp;nbsp; NOT NULL AUTO-INCREMENT" style="shape=partialRectangle;connectable=0;fillColor=none;top=0;left=0;bottom=0;right=0;align=left;spacingLeft=6;fontStyle=5;overflow=hidden;whiteSpace=wrap;html=1;" vertex="1" parent="Ok9xSp1kx2kLwXgk5E_P-129">
          <mxGeometry x="30" width="236.5" height="30" as="geometry">
            <mxRectangle width="236.5" height="30" as="alternateBounds" />
          </mxGeometry>
        </mxCell>
        <mxCell id="Ok9xSp1kx2kLwXgk5E_P-132" value="" style="shape=tableRow;horizontal=0;startSize=0;swimlaneHead=0;swimlaneBody=0;fillColor=none;collapsible=0;dropTarget=0;points=[[0,0.5],[1,0.5]];portConstraint=eastwest;top=0;left=0;right=0;bottom=0;" vertex="1" parent="Ok9xSp1kx2kLwXgk5E_P-128">
          <mxGeometry y="60" width="266.5" height="30" as="geometry" />
        </mxCell>
        <mxCell id="Ok9xSp1kx2kLwXgk5E_P-133" value="" style="shape=partialRectangle;connectable=0;fillColor=none;top=0;left=0;bottom=0;right=0;editable=1;overflow=hidden;whiteSpace=wrap;html=1;" vertex="1" parent="Ok9xSp1kx2kLwXgk5E_P-132">
          <mxGeometry width="30" height="30" as="geometry">
            <mxRectangle width="30" height="30" as="alternateBounds" />
          </mxGeometry>
        </mxCell>
        <mxCell id="Ok9xSp1kx2kLwXgk5E_P-134" value="NOME: VARCHAR(255) NOT NULL" style="shape=partialRectangle;connectable=0;fillColor=none;top=0;left=0;bottom=0;right=0;align=left;spacingLeft=6;overflow=hidden;whiteSpace=wrap;html=1;" vertex="1" parent="Ok9xSp1kx2kLwXgk5E_P-132">
          <mxGeometry x="30" width="236.5" height="30" as="geometry">
            <mxRectangle width="236.5" height="30" as="alternateBounds" />
          </mxGeometry>
        </mxCell>
        <mxCell id="Ok9xSp1kx2kLwXgk5E_P-135" value="" style="shape=tableRow;horizontal=0;startSize=0;swimlaneHead=0;swimlaneBody=0;fillColor=none;collapsible=0;dropTarget=0;points=[[0,0.5],[1,0.5]];portConstraint=eastwest;top=0;left=0;right=0;bottom=0;" vertex="1" parent="Ok9xSp1kx2kLwXgk5E_P-128">
          <mxGeometry y="90" width="266.5" height="30" as="geometry" />
        </mxCell>
        <mxCell id="Ok9xSp1kx2kLwXgk5E_P-136" value="FK" style="shape=partialRectangle;connectable=0;fillColor=none;top=0;left=0;bottom=0;right=0;editable=1;overflow=hidden;whiteSpace=wrap;html=1;" vertex="1" parent="Ok9xSp1kx2kLwXgk5E_P-135">
          <mxGeometry width="30" height="30" as="geometry">
            <mxRectangle width="30" height="30" as="alternateBounds" />
          </mxGeometry>
        </mxCell>
        <mxCell id="Ok9xSp1kx2kLwXgk5E_P-137" value="FK_ID_ENDERECO" style="shape=partialRectangle;connectable=0;fillColor=none;top=0;left=0;bottom=0;right=0;align=left;spacingLeft=6;overflow=hidden;whiteSpace=wrap;html=1;" vertex="1" parent="Ok9xSp1kx2kLwXgk5E_P-135">
          <mxGeometry x="30" width="236.5" height="30" as="geometry">
            <mxRectangle width="236.5" height="30" as="alternateBounds" />
          </mxGeometry>
        </mxCell>
        <mxCell id="Ok9xSp1kx2kLwXgk5E_P-142" value="" style="edgeStyle=entityRelationEdgeStyle;fontSize=12;html=1;endArrow=ERoneToMany;rounded=0;exitX=1;exitY=0.5;exitDx=0;exitDy=0;entryX=0;entryY=0.5;entryDx=0;entryDy=0;" edge="1" parent="1" source="Ok9xSp1kx2kLwXgk5E_P-129" target="Ok9xSp1kx2kLwXgk5E_P-104">
          <mxGeometry width="100" height="100" relative="1" as="geometry">
            <mxPoint x="-163" y="350" as="sourcePoint" />
            <mxPoint x="-63" y="250" as="targetPoint" />
          </mxGeometry>
        </mxCell>
        <mxCell id="Ok9xSp1kx2kLwXgk5E_P-143" value="" style="edgeStyle=entityRelationEdgeStyle;fontSize=12;html=1;endArrow=ERoneToMany;rounded=0;exitX=1;exitY=0.5;exitDx=0;exitDy=0;" edge="1" parent="1" source="Ok9xSp1kx2kLwXgk5E_P-129" target="Ok9xSp1kx2kLwXgk5E_P-107">
          <mxGeometry width="100" height="100" relative="1" as="geometry">
            <mxPoint x="-121" y="370" as="sourcePoint" />
            <mxPoint x="-21" y="270" as="targetPoint" />
            <Array as="points">
              <mxPoint x="-458" y="334" />
              <mxPoint x="-400" y="294" />
            </Array>
          </mxGeometry>
        </mxCell>
        <mxCell id="Ok9xSp1kx2kLwXgk5E_P-144" value="ENDERECO" style="shape=table;startSize=30;container=1;collapsible=1;childLayout=tableLayout;fixedRows=1;rowLines=0;fontStyle=1;align=center;resizeLast=1;html=1;" vertex="1" parent="1">
          <mxGeometry x="-819" y="121" width="378" height="245" as="geometry" />
        </mxCell>
        <mxCell id="Ok9xSp1kx2kLwXgk5E_P-145" value="" style="shape=tableRow;horizontal=0;startSize=0;swimlaneHead=0;swimlaneBody=0;fillColor=none;collapsible=0;dropTarget=0;points=[[0,0.5],[1,0.5]];portConstraint=eastwest;top=0;left=0;right=0;bottom=1;" vertex="1" parent="Ok9xSp1kx2kLwXgk5E_P-144">
          <mxGeometry y="30" width="378" height="30" as="geometry" />
        </mxCell>
        <mxCell id="Ok9xSp1kx2kLwXgk5E_P-146" value="PK" style="shape=partialRectangle;connectable=0;fillColor=none;top=0;left=0;bottom=0;right=0;fontStyle=1;overflow=hidden;whiteSpace=wrap;html=1;" vertex="1" parent="Ok9xSp1kx2kLwXgk5E_P-145">
          <mxGeometry width="30" height="30" as="geometry">
            <mxRectangle width="30" height="30" as="alternateBounds" />
          </mxGeometry>
        </mxCell>
        <mxCell id="Ok9xSp1kx2kLwXgk5E_P-147" value="ID: INT NOT NULL AUTO-INCREMENT" style="shape=partialRectangle;connectable=0;fillColor=none;top=0;left=0;bottom=0;right=0;align=left;spacingLeft=6;fontStyle=5;overflow=hidden;whiteSpace=wrap;html=1;" vertex="1" parent="Ok9xSp1kx2kLwXgk5E_P-145">
          <mxGeometry x="30" width="348" height="30" as="geometry">
            <mxRectangle width="348" height="30" as="alternateBounds" />
          </mxGeometry>
        </mxCell>
        <mxCell id="Ok9xSp1kx2kLwXgk5E_P-148" value="" style="shape=tableRow;horizontal=0;startSize=0;swimlaneHead=0;swimlaneBody=0;fillColor=none;collapsible=0;dropTarget=0;points=[[0,0.5],[1,0.5]];portConstraint=eastwest;top=0;left=0;right=0;bottom=0;" vertex="1" parent="Ok9xSp1kx2kLwXgk5E_P-144">
          <mxGeometry y="60" width="378" height="30" as="geometry" />
        </mxCell>
        <mxCell id="Ok9xSp1kx2kLwXgk5E_P-149" value="" style="shape=partialRectangle;connectable=0;fillColor=none;top=0;left=0;bottom=0;right=0;editable=1;overflow=hidden;whiteSpace=wrap;html=1;" vertex="1" parent="Ok9xSp1kx2kLwXgk5E_P-148">
          <mxGeometry width="30" height="30" as="geometry">
            <mxRectangle width="30" height="30" as="alternateBounds" />
          </mxGeometry>
        </mxCell>
        <mxCell id="Ok9xSp1kx2kLwXgk5E_P-150" value="RUA / AV : VARCHAR(255) NOT NULL" style="shape=partialRectangle;connectable=0;fillColor=none;top=0;left=0;bottom=0;right=0;align=left;spacingLeft=6;overflow=hidden;whiteSpace=wrap;html=1;" vertex="1" parent="Ok9xSp1kx2kLwXgk5E_P-148">
          <mxGeometry x="30" width="348" height="30" as="geometry">
            <mxRectangle width="348" height="30" as="alternateBounds" />
          </mxGeometry>
        </mxCell>
        <mxCell id="Ok9xSp1kx2kLwXgk5E_P-151" value="" style="shape=tableRow;horizontal=0;startSize=0;swimlaneHead=0;swimlaneBody=0;fillColor=none;collapsible=0;dropTarget=0;points=[[0,0.5],[1,0.5]];portConstraint=eastwest;top=0;left=0;right=0;bottom=0;" vertex="1" parent="Ok9xSp1kx2kLwXgk5E_P-144">
          <mxGeometry y="90" width="378" height="30" as="geometry" />
        </mxCell>
        <mxCell id="Ok9xSp1kx2kLwXgk5E_P-152" value="" style="shape=partialRectangle;connectable=0;fillColor=none;top=0;left=0;bottom=0;right=0;editable=1;overflow=hidden;whiteSpace=wrap;html=1;" vertex="1" parent="Ok9xSp1kx2kLwXgk5E_P-151">
          <mxGeometry width="30" height="30" as="geometry">
            <mxRectangle width="30" height="30" as="alternateBounds" />
          </mxGeometry>
        </mxCell>
        <mxCell id="Ok9xSp1kx2kLwXgk5E_P-153" value="NUMERO: INT NOT&amp;nbsp; NULL" style="shape=partialRectangle;connectable=0;fillColor=none;top=0;left=0;bottom=0;right=0;align=left;spacingLeft=6;overflow=hidden;whiteSpace=wrap;html=1;" vertex="1" parent="Ok9xSp1kx2kLwXgk5E_P-151">
          <mxGeometry x="30" width="348" height="30" as="geometry">
            <mxRectangle width="348" height="30" as="alternateBounds" />
          </mxGeometry>
        </mxCell>
        <mxCell id="Ok9xSp1kx2kLwXgk5E_P-154" value="" style="shape=tableRow;horizontal=0;startSize=0;swimlaneHead=0;swimlaneBody=0;fillColor=none;collapsible=0;dropTarget=0;points=[[0,0.5],[1,0.5]];portConstraint=eastwest;top=0;left=0;right=0;bottom=0;" vertex="1" parent="Ok9xSp1kx2kLwXgk5E_P-144">
          <mxGeometry y="120" width="378" height="30" as="geometry" />
        </mxCell>
        <mxCell id="Ok9xSp1kx2kLwXgk5E_P-155" value="" style="shape=partialRectangle;connectable=0;fillColor=none;top=0;left=0;bottom=0;right=0;editable=1;overflow=hidden;whiteSpace=wrap;html=1;" vertex="1" parent="Ok9xSp1kx2kLwXgk5E_P-154">
          <mxGeometry width="30" height="30" as="geometry">
            <mxRectangle width="30" height="30" as="alternateBounds" />
          </mxGeometry>
        </mxCell>
        <mxCell id="Ok9xSp1kx2kLwXgk5E_P-156" value="COMPLEMENTO: VARCHAR(255)" style="shape=partialRectangle;connectable=0;fillColor=none;top=0;left=0;bottom=0;right=0;align=left;spacingLeft=6;overflow=hidden;whiteSpace=wrap;html=1;" vertex="1" parent="Ok9xSp1kx2kLwXgk5E_P-154">
          <mxGeometry x="30" width="348" height="30" as="geometry">
            <mxRectangle width="348" height="30" as="alternateBounds" />
          </mxGeometry>
        </mxCell>
        <mxCell id="Ok9xSp1kx2kLwXgk5E_P-158" value="" style="shape=tableRow;horizontal=0;startSize=0;swimlaneHead=0;swimlaneBody=0;fillColor=none;collapsible=0;dropTarget=0;points=[[0,0.5],[1,0.5]];portConstraint=eastwest;top=0;left=0;right=0;bottom=0;" vertex="1" parent="Ok9xSp1kx2kLwXgk5E_P-144">
          <mxGeometry y="150" width="378" height="30" as="geometry" />
        </mxCell>
        <mxCell id="Ok9xSp1kx2kLwXgk5E_P-159" value="" style="shape=partialRectangle;connectable=0;fillColor=none;top=0;left=0;bottom=0;right=0;editable=1;overflow=hidden;whiteSpace=wrap;html=1;" vertex="1" parent="Ok9xSp1kx2kLwXgk5E_P-158">
          <mxGeometry width="30" height="30" as="geometry">
            <mxRectangle width="30" height="30" as="alternateBounds" />
          </mxGeometry>
        </mxCell>
        <mxCell id="Ok9xSp1kx2kLwXgk5E_P-160" value="CEP: VARCHAR(10) NOT NULL" style="shape=partialRectangle;connectable=0;fillColor=none;top=0;left=0;bottom=0;right=0;align=left;spacingLeft=6;overflow=hidden;whiteSpace=wrap;html=1;" vertex="1" parent="Ok9xSp1kx2kLwXgk5E_P-158">
          <mxGeometry x="30" width="348" height="30" as="geometry">
            <mxRectangle width="348" height="30" as="alternateBounds" />
          </mxGeometry>
        </mxCell>
        <mxCell id="Ok9xSp1kx2kLwXgk5E_P-161" value="" style="shape=tableRow;horizontal=0;startSize=0;swimlaneHead=0;swimlaneBody=0;fillColor=none;collapsible=0;dropTarget=0;points=[[0,0.5],[1,0.5]];portConstraint=eastwest;top=0;left=0;right=0;bottom=0;" vertex="1" parent="Ok9xSp1kx2kLwXgk5E_P-144">
          <mxGeometry y="180" width="378" height="30" as="geometry" />
        </mxCell>
        <mxCell id="Ok9xSp1kx2kLwXgk5E_P-162" value="" style="shape=partialRectangle;connectable=0;fillColor=none;top=0;left=0;bottom=0;right=0;editable=1;overflow=hidden;whiteSpace=wrap;html=1;" vertex="1" parent="Ok9xSp1kx2kLwXgk5E_P-161">
          <mxGeometry width="30" height="30" as="geometry">
            <mxRectangle width="30" height="30" as="alternateBounds" />
          </mxGeometry>
        </mxCell>
        <mxCell id="Ok9xSp1kx2kLwXgk5E_P-163" value="CIDADE: VARCHAR(255) NOT NULL" style="shape=partialRectangle;connectable=0;fillColor=none;top=0;left=0;bottom=0;right=0;align=left;spacingLeft=6;overflow=hidden;whiteSpace=wrap;html=1;" vertex="1" parent="Ok9xSp1kx2kLwXgk5E_P-161">
          <mxGeometry x="30" width="348" height="30" as="geometry">
            <mxRectangle width="348" height="30" as="alternateBounds" />
          </mxGeometry>
        </mxCell>
        <mxCell id="Ok9xSp1kx2kLwXgk5E_P-164" value="" style="shape=tableRow;horizontal=0;startSize=0;swimlaneHead=0;swimlaneBody=0;fillColor=none;collapsible=0;dropTarget=0;points=[[0,0.5],[1,0.5]];portConstraint=eastwest;top=0;left=0;right=0;bottom=0;" vertex="1" parent="Ok9xSp1kx2kLwXgk5E_P-144">
          <mxGeometry y="210" width="378" height="30" as="geometry" />
        </mxCell>
        <mxCell id="Ok9xSp1kx2kLwXgk5E_P-165" value="" style="shape=partialRectangle;connectable=0;fillColor=none;top=0;left=0;bottom=0;right=0;editable=1;overflow=hidden;whiteSpace=wrap;html=1;" vertex="1" parent="Ok9xSp1kx2kLwXgk5E_P-164">
          <mxGeometry width="30" height="30" as="geometry">
            <mxRectangle width="30" height="30" as="alternateBounds" />
          </mxGeometry>
        </mxCell>
        <mxCell id="Ok9xSp1kx2kLwXgk5E_P-166" value="UF: VARCHAR(2) NOT NULL" style="shape=partialRectangle;connectable=0;fillColor=none;top=0;left=0;bottom=0;right=0;align=left;spacingLeft=6;overflow=hidden;whiteSpace=wrap;html=1;" vertex="1" parent="Ok9xSp1kx2kLwXgk5E_P-164">
          <mxGeometry x="30" width="348" height="30" as="geometry">
            <mxRectangle width="348" height="30" as="alternateBounds" />
          </mxGeometry>
        </mxCell>
        <mxCell id="Ok9xSp1kx2kLwXgk5E_P-168" value="" style="edgeStyle=entityRelationEdgeStyle;fontSize=12;html=1;endArrow=ERmandOne;startArrow=ERmandOne;rounded=0;entryX=1;entryY=0.5;entryDx=0;entryDy=0;" edge="1" parent="1" source="Ok9xSp1kx2kLwXgk5E_P-129" target="Ok9xSp1kx2kLwXgk5E_P-145">
          <mxGeometry width="100" height="100" relative="1" as="geometry">
            <mxPoint x="-184" y="660" as="sourcePoint" />
            <mxPoint x="-702" y="415" as="targetPoint" />
            <Array as="points">
              <mxPoint x="-189" y="671" />
              <mxPoint x="-712" y="911" />
              <mxPoint x="160" y="868" />
              <mxPoint x="-311" y="851" />
              <mxPoint x="-572" y="773" />
              <mxPoint x="-469" y="970" />
              <mxPoint x="-517" y="784" />
              <mxPoint x="-454" y="759" />
            </Array>
          </mxGeometry>
        </mxCell>
        <mxCell id="Ok9xSp1kx2kLwXgk5E_P-199" value="CARRO" style="shape=table;startSize=30;container=1;collapsible=1;childLayout=tableLayout;fixedRows=1;rowLines=0;fontStyle=1;align=center;resizeLast=1;html=1;" vertex="1" parent="1">
          <mxGeometry x="504" y="-32" width="440" height="270" as="geometry" />
        </mxCell>
        <mxCell id="Ok9xSp1kx2kLwXgk5E_P-200" value="" style="shape=tableRow;horizontal=0;startSize=0;swimlaneHead=0;swimlaneBody=0;fillColor=none;collapsible=0;dropTarget=0;points=[[0,0.5],[1,0.5]];portConstraint=eastwest;top=0;left=0;right=0;bottom=1;" vertex="1" parent="Ok9xSp1kx2kLwXgk5E_P-199">
          <mxGeometry y="30" width="440" height="30" as="geometry" />
        </mxCell>
        <mxCell id="Ok9xSp1kx2kLwXgk5E_P-201" value="PK" style="shape=partialRectangle;connectable=0;fillColor=none;top=0;left=0;bottom=0;right=0;fontStyle=1;overflow=hidden;whiteSpace=wrap;html=1;" vertex="1" parent="Ok9xSp1kx2kLwXgk5E_P-200">
          <mxGeometry width="30" height="30" as="geometry">
            <mxRectangle width="30" height="30" as="alternateBounds" />
          </mxGeometry>
        </mxCell>
        <mxCell id="Ok9xSp1kx2kLwXgk5E_P-202" value="iD: INT NOT NUL AUTO-INCREMENT" style="shape=partialRectangle;connectable=0;fillColor=none;top=0;left=0;bottom=0;right=0;align=left;spacingLeft=6;fontStyle=5;overflow=hidden;whiteSpace=wrap;html=1;" vertex="1" parent="Ok9xSp1kx2kLwXgk5E_P-200">
          <mxGeometry x="30" width="410" height="30" as="geometry">
            <mxRectangle width="410" height="30" as="alternateBounds" />
          </mxGeometry>
        </mxCell>
        <mxCell id="Ok9xSp1kx2kLwXgk5E_P-203" value="" style="shape=tableRow;horizontal=0;startSize=0;swimlaneHead=0;swimlaneBody=0;fillColor=none;collapsible=0;dropTarget=0;points=[[0,0.5],[1,0.5]];portConstraint=eastwest;top=0;left=0;right=0;bottom=0;" vertex="1" parent="Ok9xSp1kx2kLwXgk5E_P-199">
          <mxGeometry y="60" width="440" height="30" as="geometry" />
        </mxCell>
        <mxCell id="Ok9xSp1kx2kLwXgk5E_P-204" value="" style="shape=partialRectangle;connectable=0;fillColor=none;top=0;left=0;bottom=0;right=0;editable=1;overflow=hidden;whiteSpace=wrap;html=1;" vertex="1" parent="Ok9xSp1kx2kLwXgk5E_P-203">
          <mxGeometry width="30" height="30" as="geometry">
            <mxRectangle width="30" height="30" as="alternateBounds" />
          </mxGeometry>
        </mxCell>
        <mxCell id="Ok9xSp1kx2kLwXgk5E_P-205" value="MODELO: VARCHAR(255)" style="shape=partialRectangle;connectable=0;fillColor=none;top=0;left=0;bottom=0;right=0;align=left;spacingLeft=6;overflow=hidden;whiteSpace=wrap;html=1;" vertex="1" parent="Ok9xSp1kx2kLwXgk5E_P-203">
          <mxGeometry x="30" width="410" height="30" as="geometry">
            <mxRectangle width="410" height="30" as="alternateBounds" />
          </mxGeometry>
        </mxCell>
        <mxCell id="Ok9xSp1kx2kLwXgk5E_P-206" value="" style="shape=tableRow;horizontal=0;startSize=0;swimlaneHead=0;swimlaneBody=0;fillColor=none;collapsible=0;dropTarget=0;points=[[0,0.5],[1,0.5]];portConstraint=eastwest;top=0;left=0;right=0;bottom=0;" vertex="1" parent="Ok9xSp1kx2kLwXgk5E_P-199">
          <mxGeometry y="90" width="440" height="30" as="geometry" />
        </mxCell>
        <mxCell id="Ok9xSp1kx2kLwXgk5E_P-207" value="" style="shape=partialRectangle;connectable=0;fillColor=none;top=0;left=0;bottom=0;right=0;editable=1;overflow=hidden;whiteSpace=wrap;html=1;" vertex="1" parent="Ok9xSp1kx2kLwXgk5E_P-206">
          <mxGeometry width="30" height="30" as="geometry">
            <mxRectangle width="30" height="30" as="alternateBounds" />
          </mxGeometry>
        </mxCell>
        <mxCell id="Ok9xSp1kx2kLwXgk5E_P-208" value="COR: ENUM (&#39;PRETO&#39;, &#39;BRANCO&#39;, &#39;PRATA&#39;) NOT NULL&lt;br&gt;" style="shape=partialRectangle;connectable=0;fillColor=none;top=0;left=0;bottom=0;right=0;align=left;spacingLeft=6;overflow=hidden;whiteSpace=wrap;html=1;" vertex="1" parent="Ok9xSp1kx2kLwXgk5E_P-206">
          <mxGeometry x="30" width="410" height="30" as="geometry">
            <mxRectangle width="410" height="30" as="alternateBounds" />
          </mxGeometry>
        </mxCell>
        <mxCell id="Ok9xSp1kx2kLwXgk5E_P-209" value="" style="shape=tableRow;horizontal=0;startSize=0;swimlaneHead=0;swimlaneBody=0;fillColor=none;collapsible=0;dropTarget=0;points=[[0,0.5],[1,0.5]];portConstraint=eastwest;top=0;left=0;right=0;bottom=0;" vertex="1" parent="Ok9xSp1kx2kLwXgk5E_P-199">
          <mxGeometry y="120" width="440" height="30" as="geometry" />
        </mxCell>
        <mxCell id="Ok9xSp1kx2kLwXgk5E_P-210" value="" style="shape=partialRectangle;connectable=0;fillColor=none;top=0;left=0;bottom=0;right=0;editable=1;overflow=hidden;whiteSpace=wrap;html=1;" vertex="1" parent="Ok9xSp1kx2kLwXgk5E_P-209">
          <mxGeometry width="30" height="30" as="geometry">
            <mxRectangle width="30" height="30" as="alternateBounds" />
          </mxGeometry>
        </mxCell>
        <mxCell id="Ok9xSp1kx2kLwXgk5E_P-211" value="QUILOMETRO_ATUAL: INT" style="shape=partialRectangle;connectable=0;fillColor=none;top=0;left=0;bottom=0;right=0;align=left;spacingLeft=6;overflow=hidden;whiteSpace=wrap;html=1;" vertex="1" parent="Ok9xSp1kx2kLwXgk5E_P-209">
          <mxGeometry x="30" width="410" height="30" as="geometry">
            <mxRectangle width="410" height="30" as="alternateBounds" />
          </mxGeometry>
        </mxCell>
        <mxCell id="Ok9xSp1kx2kLwXgk5E_P-212" value="" style="shape=tableRow;horizontal=0;startSize=0;swimlaneHead=0;swimlaneBody=0;fillColor=none;collapsible=0;dropTarget=0;points=[[0,0.5],[1,0.5]];portConstraint=eastwest;top=0;left=0;right=0;bottom=0;" vertex="1" parent="Ok9xSp1kx2kLwXgk5E_P-199">
          <mxGeometry y="150" width="440" height="30" as="geometry" />
        </mxCell>
        <mxCell id="Ok9xSp1kx2kLwXgk5E_P-213" value="" style="shape=partialRectangle;connectable=0;fillColor=none;top=0;left=0;bottom=0;right=0;editable=1;overflow=hidden;whiteSpace=wrap;html=1;" vertex="1" parent="Ok9xSp1kx2kLwXgk5E_P-212">
          <mxGeometry width="30" height="30" as="geometry">
            <mxRectangle width="30" height="30" as="alternateBounds" />
          </mxGeometry>
        </mxCell>
        <mxCell id="Ok9xSp1kx2kLwXgk5E_P-214" value="STATUS_LOCACAO: BOOLEAN" style="shape=partialRectangle;connectable=0;fillColor=none;top=0;left=0;bottom=0;right=0;align=left;spacingLeft=6;overflow=hidden;whiteSpace=wrap;html=1;" vertex="1" parent="Ok9xSp1kx2kLwXgk5E_P-212">
          <mxGeometry x="30" width="410" height="30" as="geometry">
            <mxRectangle width="410" height="30" as="alternateBounds" />
          </mxGeometry>
        </mxCell>
        <mxCell id="Ok9xSp1kx2kLwXgk5E_P-215" value="" style="shape=tableRow;horizontal=0;startSize=0;swimlaneHead=0;swimlaneBody=0;fillColor=none;collapsible=0;dropTarget=0;points=[[0,0.5],[1,0.5]];portConstraint=eastwest;top=0;left=0;right=0;bottom=0;" vertex="1" parent="Ok9xSp1kx2kLwXgk5E_P-199">
          <mxGeometry y="180" width="440" height="30" as="geometry" />
        </mxCell>
        <mxCell id="Ok9xSp1kx2kLwXgk5E_P-216" value="FK" style="shape=partialRectangle;connectable=0;fillColor=none;top=0;left=0;bottom=0;right=0;editable=1;overflow=hidden;whiteSpace=wrap;html=1;" vertex="1" parent="Ok9xSp1kx2kLwXgk5E_P-215">
          <mxGeometry width="30" height="30" as="geometry">
            <mxRectangle width="30" height="30" as="alternateBounds" />
          </mxGeometry>
        </mxCell>
        <mxCell id="Ok9xSp1kx2kLwXgk5E_P-217" value="FK_ID_MONTADORA: INT NOT NULL" style="shape=partialRectangle;connectable=0;fillColor=none;top=0;left=0;bottom=0;right=0;align=left;spacingLeft=6;overflow=hidden;whiteSpace=wrap;html=1;" vertex="1" parent="Ok9xSp1kx2kLwXgk5E_P-215">
          <mxGeometry x="30" width="410" height="30" as="geometry">
            <mxRectangle width="410" height="30" as="alternateBounds" />
          </mxGeometry>
        </mxCell>
        <mxCell id="Ok9xSp1kx2kLwXgk5E_P-218" value="" style="shape=tableRow;horizontal=0;startSize=0;swimlaneHead=0;swimlaneBody=0;fillColor=none;collapsible=0;dropTarget=0;points=[[0,0.5],[1,0.5]];portConstraint=eastwest;top=0;left=0;right=0;bottom=0;" vertex="1" parent="Ok9xSp1kx2kLwXgk5E_P-199">
          <mxGeometry y="210" width="440" height="30" as="geometry" />
        </mxCell>
        <mxCell id="Ok9xSp1kx2kLwXgk5E_P-219" value="FK" style="shape=partialRectangle;connectable=0;fillColor=none;top=0;left=0;bottom=0;right=0;editable=1;overflow=hidden;whiteSpace=wrap;html=1;" vertex="1" parent="Ok9xSp1kx2kLwXgk5E_P-218">
          <mxGeometry width="30" height="30" as="geometry">
            <mxRectangle width="30" height="30" as="alternateBounds" />
          </mxGeometry>
        </mxCell>
        <mxCell id="Ok9xSp1kx2kLwXgk5E_P-220" value="FK_ID_CATEGORIA: INT NOT NULL" style="shape=partialRectangle;connectable=0;fillColor=none;top=0;left=0;bottom=0;right=0;align=left;spacingLeft=6;overflow=hidden;whiteSpace=wrap;html=1;" vertex="1" parent="Ok9xSp1kx2kLwXgk5E_P-218">
          <mxGeometry x="30" width="410" height="30" as="geometry">
            <mxRectangle width="410" height="30" as="alternateBounds" />
          </mxGeometry>
        </mxCell>
        <mxCell id="Ok9xSp1kx2kLwXgk5E_P-221" value="" style="shape=tableRow;horizontal=0;startSize=0;swimlaneHead=0;swimlaneBody=0;fillColor=none;collapsible=0;dropTarget=0;points=[[0,0.5],[1,0.5]];portConstraint=eastwest;top=0;left=0;right=0;bottom=0;" vertex="1" parent="Ok9xSp1kx2kLwXgk5E_P-199">
          <mxGeometry y="240" width="440" height="30" as="geometry" />
        </mxCell>
        <mxCell id="Ok9xSp1kx2kLwXgk5E_P-222" value="FK" style="shape=partialRectangle;connectable=0;fillColor=none;top=0;left=0;bottom=0;right=0;editable=1;overflow=hidden;whiteSpace=wrap;html=1;" vertex="1" parent="Ok9xSp1kx2kLwXgk5E_P-221">
          <mxGeometry width="30" height="30" as="geometry">
            <mxRectangle width="30" height="30" as="alternateBounds" />
          </mxGeometry>
        </mxCell>
        <mxCell id="Ok9xSp1kx2kLwXgk5E_P-223" value="FK_ID_VERSAO: INT" style="shape=partialRectangle;connectable=0;fillColor=none;top=0;left=0;bottom=0;right=0;align=left;spacingLeft=6;overflow=hidden;whiteSpace=wrap;html=1;" vertex="1" parent="Ok9xSp1kx2kLwXgk5E_P-221">
          <mxGeometry x="30" width="410" height="30" as="geometry">
            <mxRectangle width="410" height="30" as="alternateBounds" />
          </mxGeometry>
        </mxCell>
        <mxCell id="Ok9xSp1kx2kLwXgk5E_P-224" value="" style="edgeStyle=entityRelationEdgeStyle;fontSize=12;html=1;endArrow=ERoneToMany;rounded=0;exitX=1;exitY=0.5;exitDx=0;exitDy=0;entryX=0;entryY=0.5;entryDx=0;entryDy=0;" edge="1" parent="1" source="Ok9xSp1kx2kLwXgk5E_P-98" target="Ok9xSp1kx2kLwXgk5E_P-200">
          <mxGeometry width="100" height="100" relative="1" as="geometry">
            <mxPoint x="256" y="330" as="sourcePoint" />
            <mxPoint x="356" y="230" as="targetPoint" />
          </mxGeometry>
        </mxCell>
        <mxCell id="Ok9xSp1kx2kLwXgk5E_P-241" value="" style="edgeStyle=entityRelationEdgeStyle;fontSize=12;html=1;endArrow=ERmany;rounded=0;exitX=0;exitY=0.5;exitDx=0;exitDy=0;entryX=1;entryY=0.5;entryDx=0;entryDy=0;" edge="1" parent="1" source="Ok9xSp1kx2kLwXgk5E_P-110" target="Ok9xSp1kx2kLwXgk5E_P-114">
          <mxGeometry width="100" height="100" relative="1" as="geometry">
            <mxPoint x="256" y="342" as="sourcePoint" />
            <mxPoint x="356" y="242" as="targetPoint" />
          </mxGeometry>
        </mxCell>
        <mxCell id="Ok9xSp1kx2kLwXgk5E_P-242" value="MONTADORA" style="shape=table;startSize=30;container=1;collapsible=1;childLayout=tableLayout;fixedRows=1;rowLines=0;fontStyle=1;align=center;resizeLast=1;html=1;" vertex="1" parent="1">
          <mxGeometry x="1114" y="-84" width="265" height="125" as="geometry" />
        </mxCell>
        <mxCell id="Ok9xSp1kx2kLwXgk5E_P-243" value="" style="shape=tableRow;horizontal=0;startSize=0;swimlaneHead=0;swimlaneBody=0;fillColor=none;collapsible=0;dropTarget=0;points=[[0,0.5],[1,0.5]];portConstraint=eastwest;top=0;left=0;right=0;bottom=1;" vertex="1" parent="Ok9xSp1kx2kLwXgk5E_P-242">
          <mxGeometry y="30" width="265" height="30" as="geometry" />
        </mxCell>
        <mxCell id="Ok9xSp1kx2kLwXgk5E_P-244" value="PK" style="shape=partialRectangle;connectable=0;fillColor=none;top=0;left=0;bottom=0;right=0;fontStyle=1;overflow=hidden;whiteSpace=wrap;html=1;" vertex="1" parent="Ok9xSp1kx2kLwXgk5E_P-243">
          <mxGeometry width="30" height="30" as="geometry">
            <mxRectangle width="30" height="30" as="alternateBounds" />
          </mxGeometry>
        </mxCell>
        <mxCell id="Ok9xSp1kx2kLwXgk5E_P-245" value="ID: INT NOT NULL AUTO-INCREMENT" style="shape=partialRectangle;connectable=0;fillColor=none;top=0;left=0;bottom=0;right=0;align=left;spacingLeft=6;fontStyle=5;overflow=hidden;whiteSpace=wrap;html=1;" vertex="1" parent="Ok9xSp1kx2kLwXgk5E_P-243">
          <mxGeometry x="30" width="235" height="30" as="geometry">
            <mxRectangle width="235" height="30" as="alternateBounds" />
          </mxGeometry>
        </mxCell>
        <mxCell id="Ok9xSp1kx2kLwXgk5E_P-246" value="" style="shape=tableRow;horizontal=0;startSize=0;swimlaneHead=0;swimlaneBody=0;fillColor=none;collapsible=0;dropTarget=0;points=[[0,0.5],[1,0.5]];portConstraint=eastwest;top=0;left=0;right=0;bottom=0;" vertex="1" parent="Ok9xSp1kx2kLwXgk5E_P-242">
          <mxGeometry y="60" width="265" height="30" as="geometry" />
        </mxCell>
        <mxCell id="Ok9xSp1kx2kLwXgk5E_P-247" value="" style="shape=partialRectangle;connectable=0;fillColor=none;top=0;left=0;bottom=0;right=0;editable=1;overflow=hidden;whiteSpace=wrap;html=1;" vertex="1" parent="Ok9xSp1kx2kLwXgk5E_P-246">
          <mxGeometry width="30" height="30" as="geometry">
            <mxRectangle width="30" height="30" as="alternateBounds" />
          </mxGeometry>
        </mxCell>
        <mxCell id="Ok9xSp1kx2kLwXgk5E_P-248" value="NOME: VARCHAR(255) NOT NULL" style="shape=partialRectangle;connectable=0;fillColor=none;top=0;left=0;bottom=0;right=0;align=left;spacingLeft=6;overflow=hidden;whiteSpace=wrap;html=1;" vertex="1" parent="Ok9xSp1kx2kLwXgk5E_P-246">
          <mxGeometry x="30" width="235" height="30" as="geometry">
            <mxRectangle width="235" height="30" as="alternateBounds" />
          </mxGeometry>
        </mxCell>
        <mxCell id="Ok9xSp1kx2kLwXgk5E_P-255" value="" style="edgeStyle=entityRelationEdgeStyle;fontSize=12;html=1;endArrow=ERmandOne;rounded=0;exitX=0;exitY=0.5;exitDx=0;exitDy=0;entryX=1;entryY=0.5;entryDx=0;entryDy=0;" edge="1" parent="1" source="Ok9xSp1kx2kLwXgk5E_P-243" target="Ok9xSp1kx2kLwXgk5E_P-215">
          <mxGeometry width="100" height="100" relative="1" as="geometry">
            <mxPoint x="1580" y="-57" as="sourcePoint" />
            <mxPoint x="677" y="-52" as="targetPoint" />
          </mxGeometry>
        </mxCell>
        <mxCell id="Ok9xSp1kx2kLwXgk5E_P-256" value="CATEGORIA" style="shape=table;startSize=30;container=1;collapsible=1;childLayout=tableLayout;fixedRows=1;rowLines=0;fontStyle=1;align=center;resizeLast=1;html=1;" vertex="1" parent="1">
          <mxGeometry x="1114" y="127" width="266" height="112" as="geometry" />
        </mxCell>
        <mxCell id="Ok9xSp1kx2kLwXgk5E_P-257" value="" style="shape=tableRow;horizontal=0;startSize=0;swimlaneHead=0;swimlaneBody=0;fillColor=none;collapsible=0;dropTarget=0;points=[[0,0.5],[1,0.5]];portConstraint=eastwest;top=0;left=0;right=0;bottom=1;" vertex="1" parent="Ok9xSp1kx2kLwXgk5E_P-256">
          <mxGeometry y="30" width="266" height="30" as="geometry" />
        </mxCell>
        <mxCell id="Ok9xSp1kx2kLwXgk5E_P-258" value="PK" style="shape=partialRectangle;connectable=0;fillColor=none;top=0;left=0;bottom=0;right=0;fontStyle=1;overflow=hidden;whiteSpace=wrap;html=1;" vertex="1" parent="Ok9xSp1kx2kLwXgk5E_P-257">
          <mxGeometry width="30" height="30" as="geometry">
            <mxRectangle width="30" height="30" as="alternateBounds" />
          </mxGeometry>
        </mxCell>
        <mxCell id="Ok9xSp1kx2kLwXgk5E_P-259" value="ID: INT NOT NULL AUTO-INCREMENT" style="shape=partialRectangle;connectable=0;fillColor=none;top=0;left=0;bottom=0;right=0;align=left;spacingLeft=6;fontStyle=5;overflow=hidden;whiteSpace=wrap;html=1;" vertex="1" parent="Ok9xSp1kx2kLwXgk5E_P-257">
          <mxGeometry x="30" width="236" height="30" as="geometry">
            <mxRectangle width="236" height="30" as="alternateBounds" />
          </mxGeometry>
        </mxCell>
        <mxCell id="Ok9xSp1kx2kLwXgk5E_P-260" value="" style="shape=tableRow;horizontal=0;startSize=0;swimlaneHead=0;swimlaneBody=0;fillColor=none;collapsible=0;dropTarget=0;points=[[0,0.5],[1,0.5]];portConstraint=eastwest;top=0;left=0;right=0;bottom=0;" vertex="1" parent="Ok9xSp1kx2kLwXgk5E_P-256">
          <mxGeometry y="60" width="266" height="30" as="geometry" />
        </mxCell>
        <mxCell id="Ok9xSp1kx2kLwXgk5E_P-261" value="" style="shape=partialRectangle;connectable=0;fillColor=none;top=0;left=0;bottom=0;right=0;editable=1;overflow=hidden;whiteSpace=wrap;html=1;" vertex="1" parent="Ok9xSp1kx2kLwXgk5E_P-260">
          <mxGeometry width="30" height="30" as="geometry">
            <mxRectangle width="30" height="30" as="alternateBounds" />
          </mxGeometry>
        </mxCell>
        <mxCell id="Ok9xSp1kx2kLwXgk5E_P-262" value="NOME: VARCHAR(255) NOT NULL" style="shape=partialRectangle;connectable=0;fillColor=none;top=0;left=0;bottom=0;right=0;align=left;spacingLeft=6;overflow=hidden;whiteSpace=wrap;html=1;" vertex="1" parent="Ok9xSp1kx2kLwXgk5E_P-260">
          <mxGeometry x="30" width="236" height="30" as="geometry">
            <mxRectangle width="236" height="30" as="alternateBounds" />
          </mxGeometry>
        </mxCell>
        <mxCell id="Ok9xSp1kx2kLwXgk5E_P-269" value="" style="edgeStyle=entityRelationEdgeStyle;fontSize=12;html=1;endArrow=ERmany;rounded=0;exitX=0;exitY=0.5;exitDx=0;exitDy=0;entryX=1;entryY=0.5;entryDx=0;entryDy=0;" edge="1" parent="1" source="Ok9xSp1kx2kLwXgk5E_P-257" target="Ok9xSp1kx2kLwXgk5E_P-218">
          <mxGeometry width="100" height="100" relative="1" as="geometry">
            <mxPoint x="1042" y="399" as="sourcePoint" />
            <mxPoint x="94" y="275" as="targetPoint" />
            <Array as="points">
              <mxPoint x="144" y="745" />
            </Array>
          </mxGeometry>
        </mxCell>
        <mxCell id="Ok9xSp1kx2kLwXgk5E_P-283" value="VERSAO" style="shape=table;startSize=30;container=1;collapsible=1;childLayout=tableLayout;fixedRows=1;rowLines=0;fontStyle=1;align=center;resizeLast=1;html=1;" vertex="1" parent="1">
          <mxGeometry x="1114" y="309" width="280" height="150" as="geometry" />
        </mxCell>
        <mxCell id="Ok9xSp1kx2kLwXgk5E_P-284" value="" style="shape=tableRow;horizontal=0;startSize=0;swimlaneHead=0;swimlaneBody=0;fillColor=none;collapsible=0;dropTarget=0;points=[[0,0.5],[1,0.5]];portConstraint=eastwest;top=0;left=0;right=0;bottom=1;" vertex="1" parent="Ok9xSp1kx2kLwXgk5E_P-283">
          <mxGeometry y="30" width="280" height="30" as="geometry" />
        </mxCell>
        <mxCell id="Ok9xSp1kx2kLwXgk5E_P-285" value="PK" style="shape=partialRectangle;connectable=0;fillColor=none;top=0;left=0;bottom=0;right=0;fontStyle=1;overflow=hidden;whiteSpace=wrap;html=1;" vertex="1" parent="Ok9xSp1kx2kLwXgk5E_P-284">
          <mxGeometry width="30" height="30" as="geometry">
            <mxRectangle width="30" height="30" as="alternateBounds" />
          </mxGeometry>
        </mxCell>
        <mxCell id="Ok9xSp1kx2kLwXgk5E_P-286" value="iD: INT NOT NUL AUTO-INCREMENT" style="shape=partialRectangle;connectable=0;fillColor=none;top=0;left=0;bottom=0;right=0;align=left;spacingLeft=6;fontStyle=5;overflow=hidden;whiteSpace=wrap;html=1;" vertex="1" parent="Ok9xSp1kx2kLwXgk5E_P-284">
          <mxGeometry x="30" width="250" height="30" as="geometry">
            <mxRectangle width="250" height="30" as="alternateBounds" />
          </mxGeometry>
        </mxCell>
        <mxCell id="Ok9xSp1kx2kLwXgk5E_P-287" value="" style="shape=tableRow;horizontal=0;startSize=0;swimlaneHead=0;swimlaneBody=0;fillColor=none;collapsible=0;dropTarget=0;points=[[0,0.5],[1,0.5]];portConstraint=eastwest;top=0;left=0;right=0;bottom=0;" vertex="1" parent="Ok9xSp1kx2kLwXgk5E_P-283">
          <mxGeometry y="60" width="280" height="30" as="geometry" />
        </mxCell>
        <mxCell id="Ok9xSp1kx2kLwXgk5E_P-288" value="" style="shape=partialRectangle;connectable=0;fillColor=none;top=0;left=0;bottom=0;right=0;editable=1;overflow=hidden;whiteSpace=wrap;html=1;" vertex="1" parent="Ok9xSp1kx2kLwXgk5E_P-287">
          <mxGeometry width="30" height="30" as="geometry">
            <mxRectangle width="30" height="30" as="alternateBounds" />
          </mxGeometry>
        </mxCell>
        <mxCell id="Ok9xSp1kx2kLwXgk5E_P-289" value="DESCRICAO: VARCHAR(255)" style="shape=partialRectangle;connectable=0;fillColor=none;top=0;left=0;bottom=0;right=0;align=left;spacingLeft=6;overflow=hidden;whiteSpace=wrap;html=1;" vertex="1" parent="Ok9xSp1kx2kLwXgk5E_P-287">
          <mxGeometry x="30" width="250" height="30" as="geometry">
            <mxRectangle width="250" height="30" as="alternateBounds" />
          </mxGeometry>
        </mxCell>
        <mxCell id="Ok9xSp1kx2kLwXgk5E_P-290" value="" style="shape=tableRow;horizontal=0;startSize=0;swimlaneHead=0;swimlaneBody=0;fillColor=none;collapsible=0;dropTarget=0;points=[[0,0.5],[1,0.5]];portConstraint=eastwest;top=0;left=0;right=0;bottom=0;" vertex="1" parent="Ok9xSp1kx2kLwXgk5E_P-283">
          <mxGeometry y="90" width="280" height="30" as="geometry" />
        </mxCell>
        <mxCell id="Ok9xSp1kx2kLwXgk5E_P-291" value="" style="shape=partialRectangle;connectable=0;fillColor=none;top=0;left=0;bottom=0;right=0;editable=1;overflow=hidden;whiteSpace=wrap;html=1;" vertex="1" parent="Ok9xSp1kx2kLwXgk5E_P-290">
          <mxGeometry width="30" height="30" as="geometry">
            <mxRectangle width="30" height="30" as="alternateBounds" />
          </mxGeometry>
        </mxCell>
        <mxCell id="Ok9xSp1kx2kLwXgk5E_P-292" value="" style="shape=partialRectangle;connectable=0;fillColor=none;top=0;left=0;bottom=0;right=0;align=left;spacingLeft=6;overflow=hidden;whiteSpace=wrap;html=1;" vertex="1" parent="Ok9xSp1kx2kLwXgk5E_P-290">
          <mxGeometry x="30" width="250" height="30" as="geometry">
            <mxRectangle width="250" height="30" as="alternateBounds" />
          </mxGeometry>
        </mxCell>
        <mxCell id="Ok9xSp1kx2kLwXgk5E_P-293" value="" style="shape=tableRow;horizontal=0;startSize=0;swimlaneHead=0;swimlaneBody=0;fillColor=none;collapsible=0;dropTarget=0;points=[[0,0.5],[1,0.5]];portConstraint=eastwest;top=0;left=0;right=0;bottom=0;" vertex="1" parent="Ok9xSp1kx2kLwXgk5E_P-283">
          <mxGeometry y="120" width="280" height="30" as="geometry" />
        </mxCell>
        <mxCell id="Ok9xSp1kx2kLwXgk5E_P-294" value="" style="shape=partialRectangle;connectable=0;fillColor=none;top=0;left=0;bottom=0;right=0;editable=1;overflow=hidden;whiteSpace=wrap;html=1;" vertex="1" parent="Ok9xSp1kx2kLwXgk5E_P-293">
          <mxGeometry width="30" height="30" as="geometry">
            <mxRectangle width="30" height="30" as="alternateBounds" />
          </mxGeometry>
        </mxCell>
        <mxCell id="Ok9xSp1kx2kLwXgk5E_P-295" value="" style="shape=partialRectangle;connectable=0;fillColor=none;top=0;left=0;bottom=0;right=0;align=left;spacingLeft=6;overflow=hidden;whiteSpace=wrap;html=1;" vertex="1" parent="Ok9xSp1kx2kLwXgk5E_P-293">
          <mxGeometry x="30" width="250" height="30" as="geometry">
            <mxRectangle width="250" height="30" as="alternateBounds" />
          </mxGeometry>
        </mxCell>
        <mxCell id="Ok9xSp1kx2kLwXgk5E_P-296" value="" style="edgeStyle=entityRelationEdgeStyle;fontSize=12;html=1;endArrow=ERoneToMany;rounded=0;entryX=1;entryY=0.5;entryDx=0;entryDy=0;exitX=0;exitY=0.5;exitDx=0;exitDy=0;" edge="1" parent="1" source="Ok9xSp1kx2kLwXgk5E_P-284" target="Ok9xSp1kx2kLwXgk5E_P-221">
          <mxGeometry width="100" height="100" relative="1" as="geometry">
            <mxPoint x="960" y="504.0000000000002" as="sourcePoint" />
            <mxPoint x="582" y="248" as="targetPoint" />
            <Array as="points">
              <mxPoint x="339" y="421" />
            </Array>
          </mxGeometry>
        </mxCell>
      </root>
    </mxGraphModel>
  </diagram>
</mxfile>
